<svg version="1.1" id="Layer_1" xmlns="http://www.w3.org/2000/svg" xmlns:xlink="http://www.w3.org/1999/xlink" x="0px" y="0px"
	 width="100%" viewBox="0 0 528 400" enable-background="new 0 0 528 400" xml:space="preserve">
<path fill="#5865F2" opacity="1.000000" stroke="none" 
	d="
M179.000000,1.000004 
	C183.024551,1.000000 187.049088,1.000000 191.178757,1.229656 
	C195.810913,10.248294 200.337936,19.037275 204.947998,27.987440 
	C206.969910,27.987440 209.136597,28.110798 211.285629,27.968184 
	C230.819672,26.671865 250.340805,25.143902 269.888123,24.105761 
	C276.276276,23.766493 282.746063,24.485062 289.150330,25.043137 
	C298.445221,25.853106 307.699554,27.182241 317.003662,27.802622 
	C319.948334,27.998966 324.658783,27.612228 325.711578,25.819180 
	C330.373901,17.878578 333.999329,9.329120 338.000000,0.999997 
	C341.692902,1.000000 345.385834,1.000000 349.202515,1.315940 
	C354.286560,2.959287 359.207703,4.461102 364.213776,5.584524 
	C388.493073,11.033084 412.044373,18.785748 435.060150,28.146505 
	C440.183960,30.230413 446.538696,32.294498 449.392487,36.404907 
	C459.017914,50.268715 467.835236,64.765495 476.022552,79.540565 
	C491.995697,108.366043 504.545837,138.695007 513.150085,170.551285 
	C516.449341,182.766342 519.624268,195.065872 521.845642,207.507278 
	C524.198303,220.684204 525.326294,234.078735 527.099487,247.363495 
	C527.182068,247.982529 528.341858,248.457779 529.000000,249.000000 
	C529.000000,275.020905 529.000000,301.041779 528.645508,327.253296 
	C527.860474,328.945526 527.525635,330.483612 526.972046,331.938385 
	C526.441650,333.332092 526.042297,335.126465 524.973389,335.912231 
	C505.931396,349.909637 486.125549,362.858673 464.727661,372.829681 
	C444.759583,382.134399 423.995758,389.728943 403.618652,398.164276 
	C402.254852,398.728882 401.199066,400.037476 400.000000,401.000000 
	C397.299988,401.000000 394.599976,401.000000 391.791321,400.769165 
	C381.165222,386.064026 371.649811,370.986572 363.748932,355.257782 
	C378.824493,348.062256 393.406433,341.102295 408.599030,333.850861 
	C405.598175,331.481110 403.396240,329.796173 401.255768,328.036407 
	C399.209106,326.353821 397.458923,326.439941 394.830261,327.464325 
	C381.238495,332.761108 367.621948,338.074493 353.740326,342.529175 
	C331.448212,349.682922 308.384583,353.711151 285.085968,354.771698 
	C259.055878,355.956482 233.008820,355.257538 207.205444,350.124878 
	C182.080612,345.127228 157.809830,337.777496 134.472305,327.232819 
	C133.023392,326.578125 130.603104,326.705109 129.246780,327.505524 
	C126.622345,329.054321 124.434502,331.342957 121.342880,333.929688 
	C136.614105,341.159149 151.240189,348.083191 166.886154,355.490051 
	C157.915665,369.524597 148.975662,383.472839 140.107681,397.466705 
	C139.469376,398.473969 139.356934,399.814453 139.000000,401.000000 
	C136.299988,401.000000 133.599976,401.000000 130.791138,400.720398 
	C121.649513,396.963074 112.614143,393.491974 103.584396,390.006317 
	C78.172340,380.196747 53.814919,368.237671 30.977324,353.383301 
	C20.697664,346.697113 10.975245,339.154205 0.999995,332.000000 
	C1.000000,303.312439 1.000000,274.624878 1.426976,245.446045 
	C2.242225,242.506485 2.600849,240.053070 3.023709,237.610764 
	C5.328861,224.296967 7.617312,210.980164 9.972515,197.675186 
	C14.121712,174.235641 21.192604,151.569931 30.289202,129.699051 
	C38.459690,110.054832 47.935211,90.906006 57.725288,71.999634 
	C64.138298,59.614979 72.061081,48.003670 79.509865,36.173302 
	C80.570419,34.488895 82.623932,33.219109 84.485062,32.296242 
	C87.671059,30.716415 91.084206,29.600588 94.374237,28.223669 
	C121.107269,17.035576 148.671127,8.580533 177.098572,2.923687 
	C177.830978,2.777941 178.370514,1.662968 179.000000,1.000004 
M130.413666,214.089706 
	C128.742157,229.266022 132.713562,242.828308 141.977875,254.923447 
	C155.709305,272.850708 180.084564,279.523224 200.368362,265.951721 
	C224.377899,249.887375 231.242859,217.174347 216.796829,192.785812 
	C205.486618,173.691315 190.164307,166.346603 169.729401,169.252426 
	C148.298309,172.299911 133.012390,192.333511 130.413666,214.089706 
M359.964325,169.050003 
	C357.466187,169.033325 354.964569,169.096573 352.470520,168.986954 
	C337.074280,168.310272 325.268372,175.714417 316.589111,187.217133 
	C299.172150,210.300095 302.536255,246.501846 326.500946,263.982605 
	C346.377899,278.481598 368.659210,275.245087 384.519226,258.685303 
	C394.900909,247.845642 399.115936,234.225830 399.198334,218.850159 
	C399.319305,196.270309 382.925903,174.121841 359.964325,169.050003 
z"/>
<path fill="#000000" opacity="1.000000" stroke="none" 
	d="
M139.468658,401.000000 
	C139.356934,399.814453 139.469376,398.473969 140.107681,397.466705 
	C148.975662,383.472839 157.915665,369.524597 166.886154,355.490051 
	C151.240189,348.083191 136.614105,341.159149 121.342880,333.929688 
	C124.434502,331.342957 126.622345,329.054321 129.246780,327.505524 
	C130.603104,326.705109 133.023392,326.578125 134.472305,327.232819 
	C157.809830,337.777496 182.080612,345.127228 207.205444,350.124878 
	C233.008820,355.257538 259.055878,355.956482 285.085968,354.771698 
	C308.384583,353.711151 331.448212,349.682922 353.740326,342.529175 
	C367.621948,338.074493 381.238495,332.761108 394.830261,327.464325 
	C397.458923,326.439941 399.209106,326.353821 401.255768,328.036407 
	C403.396240,329.796173 405.598175,331.481110 408.599030,333.850861 
	C393.406433,341.102295 378.824493,348.062256 363.748932,355.257782 
	C371.649811,370.986572 381.165222,386.064026 391.341370,400.769165 
	C307.312439,401.000000 223.624878,401.000000 139.468658,401.000000 
z"/>
<path fill="#000000" opacity="1.000000" stroke="none" 
	d="
M529.000000,248.531342 
	C528.341858,248.457779 527.182068,247.982529 527.099487,247.363495 
	C525.326294,234.078735 524.198303,220.684204 521.845642,207.507278 
	C519.624268,195.065872 516.449341,182.766342 513.150085,170.551285 
	C504.545837,138.695007 491.995697,108.366043 476.022552,79.540565 
	C467.835236,64.765495 459.017914,50.268715 449.392487,36.404907 
	C446.538696,32.294498 440.183960,30.230413 435.060150,28.146505 
	C412.044373,18.785748 388.493073,11.033084 364.213776,5.584524 
	C359.207703,4.461102 354.286560,2.959287 349.663147,1.315940 
	C409.605499,1.000000 469.210968,1.000000 529.000000,1.000000 
	C529.000000,83.354134 529.000000,165.708405 529.000000,248.531342 
z"/>
<path fill="#000000" opacity="1.000000" stroke="none" 
	d="
M178.531342,1.000004 
	C178.370514,1.662968 177.830978,2.777941 177.098572,2.923687 
	C148.671127,8.580533 121.107269,17.035576 94.374237,28.223669 
	C91.084206,29.600588 87.671059,30.716415 84.485062,32.296242 
	C82.623932,33.219109 80.570419,34.488895 79.509865,36.173302 
	C72.061081,48.003670 64.138298,59.614979 57.725288,71.999634 
	C47.935211,90.906006 38.459690,110.054832 30.289202,129.699051 
	C21.192604,151.569931 14.121712,174.235641 9.972515,197.675186 
	C7.617312,210.980164 5.328861,224.296967 3.023709,237.610764 
	C2.600849,240.053070 2.242225,242.506485 1.426976,244.977386 
	C1.000000,163.751053 1.000000,82.502106 1.000000,1.000000 
	C60.020653,1.000000 119.041672,1.000000 178.531342,1.000004 
z"/>
<path fill="#000000" opacity="1.000000" stroke="none" 
	d="
M400.468658,401.000000 
	C401.199066,400.037476 402.254852,398.728882 403.618652,398.164276 
	C423.995758,389.728943 444.759583,382.134399 464.727661,372.829681 
	C486.125549,362.858673 505.931396,349.909637 524.973389,335.912231 
	C526.042297,335.126465 526.441650,333.332092 526.972046,331.938385 
	C527.525635,330.483612 527.860474,328.945526 528.645508,327.721924 
	C529.000000,352.280518 529.000000,376.561035 529.000000,401.000000 
	C486.312561,401.000000 443.624939,401.000000 400.468658,401.000000 
z"/>
<path fill="#000000" opacity="1.000000" stroke="none" 
	d="
M0.999995,332.468658 
	C10.975245,339.154205 20.697664,346.697113 30.977324,353.383301 
	C53.814919,368.237671 78.172340,380.196747 103.584396,390.006317 
	C112.614143,393.491974 121.649513,396.963074 130.341156,400.720398 
	C87.095207,401.000000 44.190422,401.000000 1.000000,401.000000 
	C1.000000,378.313232 1.000000,355.625275 0.999995,332.468658 
z"/>
<path fill="#000000" opacity="1.000000" stroke="none" 
	d="
M337.531342,0.999997 
	C333.999329,9.329120 330.373901,17.878578 325.711578,25.819180 
	C324.658783,27.612228 319.948334,27.998966 317.003662,27.802622 
	C307.699554,27.182241 298.445221,25.853106 289.150330,25.043137 
	C282.746063,24.485062 276.276276,23.766493 269.888123,24.105761 
	C250.340805,25.143902 230.819672,26.671865 211.285629,27.968184 
	C209.136597,28.110798 206.969910,27.987440 204.947998,27.987440 
	C200.337936,19.037275 195.810913,10.248294 191.641937,1.229656 
	C240.354233,1.000000 288.708466,1.000000 337.531342,0.999997 
z"/>
<path fill="#000000" opacity="1.000000" stroke="none" 
	d="
M130.659195,213.710480 
	C133.012390,192.333511 148.298309,172.299911 169.729401,169.252426 
	C190.164307,166.346603 205.486618,173.691315 216.796829,192.785812 
	C231.242859,217.174347 224.377899,249.887375 200.368362,265.951721 
	C180.084564,279.523224 155.709305,272.850708 141.977875,254.923447 
	C132.713562,242.828308 128.742157,229.266022 130.659195,213.710480 
z"/>
<path fill="#000000" opacity="1.000000" stroke="none" 
	d="
M360.388123,169.190369 
	C382.925903,174.121841 399.319305,196.270309 399.198334,218.850159 
	C399.115936,234.225830 394.900909,247.845642 384.519226,258.685303 
	C368.659210,275.245087 346.377899,278.481598 326.500946,263.982605 
	C302.536255,246.501846 299.172150,210.300095 316.589111,187.217133 
	C325.268372,175.714417 337.074280,168.310272 352.470520,168.986954 
	C354.964569,169.096573 357.466187,169.033325 360.388123,169.190369 
z"/>
</svg>